<svg xmlns="http://www.w3.org/2000/svg" xmlns:xlink="http://www.w3.org/1999/xlink" viewBox="0,0,256,256" width="32px" height="32px" fill-rule="nonzero"><g fill="#246234" fill-rule="nonzero" stroke="none" stroke-width="1" stroke-linecap="butt" stroke-linejoin="miter" stroke-miterlimit="10" stroke-dasharray="" stroke-dashoffset="0" font-family="none" font-weight="none" font-size="none" text-anchor="none" style="mix-blend-mode: normal"><g transform="scale(8,8)"><path d="M16,3c-7.17,0 -13,5.83 -13,13c0,7.17 5.83,13 13,13c7.17,0 13,-5.83 13,-13c0,-7.17 -5.83,-13 -13,-13zM17,22c0,0.553 -0.447,1 -1,1c-0.553,0 -1,-0.447 -1,-1v-8c0,-0.553 0.447,-1 1,-1c0.553,0 1,0.447 1,1zM16,11c-0.552,0 -1,-0.448 -1,-1c0,-0.552 0.448,-1 1,-1c0.552,0 1,0.448 1,1c0,0.552 -0.448,1 -1,1z"></path></g></g></svg>